<svg width="50" height="50" viewBox="0 0 50 50" fill="none" xmlns="http://www.w3.org/2000/svg">
<g clip-path="url(#clip0_90_573)">
<path d="M36.875 19.125C37.0559 18.9044 37.1907 18.6498 37.2714 18.3762C37.3522 18.1026 37.3773 17.8156 37.3453 17.5321C37.3132 17.2486 37.2247 16.9745 37.0849 16.7258C36.945 16.4772 36.7568 16.2591 36.5313 16.0844C36.0725 15.7255 35.4917 15.5599 34.9127 15.6229C34.3336 15.686 33.8021 15.9727 33.4313 16.4219L23.0875 29.1094L17.5563 24.8594C17.1044 24.4916 16.5268 24.3149 15.9466 24.3669C15.3664 24.4188 14.8293 24.6954 14.45 25.1375C14.2647 25.3544 14.1247 25.6062 14.0384 25.878C13.952 26.1499 13.921 26.4363 13.9473 26.7203C13.9735 27.0044 14.0564 27.2803 14.191 27.5317C14.3257 27.7832 14.5094 28.0051 14.7313 28.1844L21.9813 33.8406C22.4391 34.213 23.0256 34.3892 23.6129 34.3306C24.2001 34.2721 24.7404 33.9836 25.1156 33.5281L36.8656 19.0906L36.875 19.125Z" fill="#EAD7B7"/>
<path fill-rule="evenodd" clip-rule="evenodd" d="M20.3446 2.23202C22.0134 1.00702 22.8477 0.39452 23.7509 0.15702C24.5579 -0.047742 25.4032 -0.047742 26.2102 0.15702C27.1227 0.39452 27.9602 1.00702 29.6165 2.23202L31.7321 3.78514C32.3102 4.21014 32.6009 4.42264 32.9134 4.58827C33.1925 4.7341 33.4832 4.85494 33.7852 4.95077C34.1259 5.05389 34.479 5.10702 35.1884 5.21639L37.7821 5.61327C39.829 5.92577 40.8509 6.08514 41.6571 6.56327C42.3759 6.98514 42.9759 7.58514 43.3977 8.30389C43.8759 9.11639 44.0321 10.1414 44.3477 12.1789L44.7446 14.7726C44.854 15.482 44.9071 15.8383 45.0102 16.1789C45.104 16.481 45.2248 16.7706 45.3727 17.0476C45.5415 17.3601 45.7509 17.6508 46.1759 18.2289L47.729 20.3445C48.954 22.0133 49.5665 22.8476 49.804 23.7508C50.0087 24.5578 50.0087 25.4031 49.804 26.2101C49.5696 27.1226 48.954 27.9601 47.729 29.6164L46.1759 31.732C45.8785 32.1048 45.61 32.4997 45.3727 32.9133C45.2245 33.1928 45.1031 33.4858 45.0102 33.7883C44.9071 34.1258 44.854 34.4789 44.7446 35.1883L44.3477 37.782C44.0352 39.8289 43.8759 40.8508 43.3977 41.657C42.9759 42.3758 42.3759 42.9758 41.6571 43.3976C40.8446 43.8758 39.8196 44.032 37.7821 44.3476L35.1884 44.7445C34.7145 44.7983 34.2454 44.8881 33.7852 45.0133C33.4832 45.1049 33.1925 45.2258 32.9134 45.3758C32.6009 45.5414 32.3102 45.7508 31.7321 46.1789L29.6165 47.732C27.9477 48.957 27.1134 49.5695 26.2102 49.807C25.4032 50.0118 24.5579 50.0118 23.7509 49.807C22.8384 49.5695 22.0009 48.957 20.3446 47.732L18.229 46.1789C17.8562 45.8815 17.4613 45.613 17.0477 45.3758C16.7692 45.2277 16.4773 45.1063 16.1759 45.0133C15.7157 44.8881 15.2466 44.7983 14.7727 44.7445L12.179 44.3476C10.1321 44.0351 9.10711 43.8789 8.30399 43.3976C7.58779 42.9716 6.98945 42.3732 6.56336 41.657C6.08524 40.8445 5.92899 39.8195 5.61336 37.782L5.21649 35.1883C5.10711 34.4789 5.05399 34.1258 4.95086 33.7851C4.85968 33.4831 4.73823 33.1909 4.58836 32.9133C4.35108 32.4997 4.0826 32.1048 3.78524 31.732L2.23211 29.6164C1.00711 27.9476 0.394612 27.1164 0.157112 26.2101C-0.0476505 25.4031 -0.0476505 24.5578 0.157112 23.7508C0.391487 22.8383 1.00711 22.0008 2.23211 20.3445L3.78524 18.2289C4.21024 17.6508 4.42274 17.3601 4.58836 17.0476C4.7342 16.7706 4.85503 16.4799 4.95086 16.1758C5.05399 15.8351 5.10711 15.482 5.21649 14.7726L5.61336 12.1789C5.92586 10.132 6.08524 9.10702 6.56336 8.30389C6.98524 7.58514 7.58524 6.99139 8.30399 6.56327C9.11649 6.08514 10.1415 5.92889 12.179 5.61327L14.7727 5.21639C15.4821 5.11014 15.8384 5.05389 16.1759 4.95077C16.4779 4.85702 16.7686 4.73619 17.0477 4.58827C17.3602 4.42264 17.6509 4.21014 18.229 3.78514L20.3446 2.23202ZM27.7821 4.75077L30.004 6.38202C30.4759 6.72889 30.9415 7.07264 31.4602 7.34764C31.9186 7.59139 32.3936 7.78827 32.8852 7.93827C33.4473 8.0937 34.0195 8.20961 34.5977 8.28514L37.3227 8.70389C39.6384 9.06014 39.9259 9.15702 40.0946 9.25702C40.3592 9.41535 40.5696 9.62577 40.7259 9.88827C40.8259 10.057 40.9259 10.3445 41.279 12.6601L41.6977 15.3851C41.7733 15.9634 41.8892 16.5356 42.0446 17.0976C42.1967 17.5935 42.3936 18.0685 42.6352 18.5226C42.9102 19.0414 43.254 19.507 43.6009 19.9789L45.2321 22.2008C46.6196 24.0883 46.7509 24.3601 46.8009 24.5539C46.8729 24.8475 46.8729 25.1541 46.8009 25.4476C46.7509 25.6383 46.6196 25.9101 45.2321 27.8008L43.6009 30.0226C43.254 30.4945 42.9102 30.9601 42.6352 31.4789C42.3936 31.9341 42.1959 32.4112 42.0446 32.9039C41.8892 33.4659 41.7733 34.0382 41.6977 34.6164L41.279 37.3414C40.9227 39.657 40.8259 39.9445 40.7259 40.1133C40.5693 40.3714 40.3528 40.588 40.0946 40.7445C39.9259 40.8445 39.6384 40.9445 37.3227 41.2976L34.5977 41.7164C34.0195 41.7919 33.4473 41.9078 32.8852 42.0633C32.3926 42.2145 31.9154 42.4123 31.4602 42.6539C30.9415 42.9289 30.4759 43.2726 30.004 43.6195L27.7821 45.2508C25.8946 46.6383 25.6227 46.7695 25.429 46.8195C25.1354 46.8916 24.8288 46.8916 24.5352 46.8195C24.3446 46.7695 24.0727 46.6383 22.1821 45.2508L19.9602 43.6195C19.4979 43.2641 19.0113 42.9414 18.504 42.6539C18.0488 42.4123 17.5716 42.2145 17.079 42.0633C16.5169 41.9078 15.9447 41.7919 15.3665 41.7164L12.6415 41.2976C10.3259 40.9414 10.0384 40.8445 9.86961 40.7445C9.61144 40.588 9.39489 40.3714 9.23836 40.1133C9.13836 39.9445 9.03836 39.657 8.68524 37.3414L8.26649 34.6164C8.19095 34.0382 8.07504 33.4659 7.91961 32.9039C7.76837 32.4112 7.57061 31.9341 7.32899 31.4789C7.05399 30.9601 6.71024 30.4945 6.36336 30.0226L4.73211 27.8008C3.34461 25.9133 3.21336 25.6414 3.16336 25.4476C3.09132 25.1541 3.09132 24.8475 3.16336 24.5539C3.21336 24.3633 3.34461 24.0914 4.73211 22.2008L6.36336 19.9789C6.71024 19.507 7.05399 19.0414 7.32899 18.5226C7.57065 18.0643 7.76753 17.5893 7.91961 17.0976C8.07504 16.5356 8.19095 15.9634 8.26649 15.3851L8.68524 12.6601C9.04149 10.3445 9.13836 10.057 9.23836 9.88827C9.39489 9.6301 9.61144 9.41354 9.86961 9.25702C10.0384 9.15702 10.3259 9.05702 12.6415 8.70389L15.3665 8.28514C15.9447 8.20961 16.5169 8.0937 17.079 7.93827C17.5748 7.78619 18.0498 7.58931 18.504 7.34764C19.0227 7.07264 19.4884 6.72889 19.9602 6.38202L22.1821 4.75077C24.0696 3.36327 24.3415 3.23202 24.5352 3.18202C24.8288 3.10998 25.1354 3.10998 25.429 3.18202C25.6196 3.23202 25.8915 3.36327 27.7821 4.75077Z" fill="#EAD7B7"/>
</g>
<defs>
<clipPath id="clip0_90_573">
<rect width="50" height="50" fill="white"/>
</clipPath>
</defs>
</svg>
