<svg width="50" height="50" viewBox="0 0 50 50" fill="none" xmlns="http://www.w3.org/2000/svg">
<path d="M15.5664 2.56151C10.5469 2.6201 7.79297 8.05955 7.82227 11.0547C7.96875 15.6738 11.1621 18.8086 15.127 22.2656C18.584 25.2734 22.5586 28.4375 24.9805 33.0078C24.9902 32.998 24.9902 32.9883 25 32.9785C25.0098 32.9883 25.0098 32.998 25.0195 33.0078C27.4414 28.4375 31.416 25.2734 34.873 22.2656C38.8379 18.8086 42.0312 15.6738 42.1777 11.0547C42.207 8.05955 39.4531 2.6201 34.4336 2.56151C30.7227 2.51268 26.3672 5.07127 25 9.17284C23.6328 5.07127 19.2773 2.51268 15.5664 2.56151ZM2.24609 36.6211V47.7539H47.7539V36.6211H2.24609ZM4.00391 38.3789H45.9961V45.9961H32.6172V40.1367H4.00391V38.3789Z" fill="#EAD7B7"/>
</svg>
