<svg width="16" height="16" viewBox="0 0 16 16" fill="none" xmlns="http://www.w3.org/2000/svg">
<g clip-path="url(#clip0_13_13)">
<path d="M14.4987 4.63538C14.4831 4.3717 14.2643 4.16663 14 4.16663H11.8333V3.33329C11.8333 1.5872 10.4128 0.166626 8.66667 0.166626H7.33333C5.58724 0.166626 4.16667 1.5872 4.16667 3.33329V4.16663H2C1.73568 4.16663 1.51693 4.3717 1.5013 4.63538L0.834635 15.302C0.82552 15.4401 0.874999 15.5748 0.968749 15.6757C1.0638 15.776 1.19531 15.8333 1.33333 15.8333H14.6667C14.8047 15.8333 14.9362 15.776 15.0312 15.6757C15.125 15.5748 15.1745 15.4401 15.1654 15.302L14.4987 4.63538ZM5.16667 3.33329C5.16667 2.13863 6.13802 1.16663 7.33333 1.16663H8.66667C9.86198 1.16663 10.8333 2.13863 10.8333 3.33329V4.16663H5.16667V3.33329ZM1.86588 14.8333L2.47005 5.16663H4.16667V5.99996C4.16667 6.276 4.39062 6.49996 4.66667 6.49996C4.94271 6.49996 5.16667 6.276 5.16667 5.99996V5.16663H10.8333V5.99996C10.8333 6.276 11.0573 6.49996 11.3333 6.49996C11.6094 6.49996 11.8333 6.276 11.8333 5.99996V5.16663H13.5299L14.1341 14.8333H1.86588Z" fill="#EAD7B7"/>
</g>
<defs>
<clipPath id="clip0_13_13">
<rect width="16" height="16" fill="white"/>
</clipPath>
</defs>
</svg>
