<svg width="16" height="16" viewBox="0 0 16 16" fill="none" xmlns="http://www.w3.org/2000/svg">
<path d="M7.99984 6H6.6665M7.99984 4H5.99984M7.99984 8H5.99984M7.99984 12H5.99984M7.99984 10H6.6665M13.9998 2H11.3332M12.6665 2V14M13.9998 14H11.3332M7.99984 13.25C7.99984 13.664 7.6585 14 7.23784 14H3.4285C3.32922 14.0008 3.23076 13.982 3.13873 13.9448C3.04671 13.9075 2.96293 13.8525 2.89217 13.7828C2.82141 13.7132 2.76506 13.6303 2.72634 13.5389C2.68762 13.4474 2.66729 13.3493 2.6665 13.25V2.66667C2.6665 2.48986 2.73674 2.32029 2.86177 2.19526C2.98679 2.07024 3.15636 2 3.33317 2H7.23784C7.6585 2 7.99984 2.336 7.99984 2.75V13.25Z" stroke="#EAD7B7" stroke-linecap="round" stroke-linejoin="round"/>
</svg>
