<svg width="50" height="50" viewBox="0 0 50 50" fill="none" xmlns="http://www.w3.org/2000/svg">
<path d="M7.83749 17.225C10.17 15.4125 12.105 16.6625 14.6875 19.6525C14.9775 19.99 15.3675 19.595 15.59 19.4025C15.8125 19.21 19.2175 16.14 19.385 16C19.55 15.8525 19.75 15.5775 19.4875 15.27C18.8551 14.4879 18.2358 13.6953 17.63 12.8925C13.11 6.98 29.995 2.97 27.4025 2.9075C26.0825 2.8725 20.7875 2.81 19.995 2.8975C16.7875 3.235 12.76 6.2325 10.7325 7.63C8.07999 9.445 7.08999 10.51 6.92749 10.6575C6.17749 11.3125 6.80749 12.825 5.44749 14.0175C4.00999 15.275 3.11249 14.3225 2.27999 15.0525C1.86749 15.4175 0.712488 16.2825 0.382488 16.57C0.0499876 16.8625 -0.0100124 17.355 0.329988 17.7475C0.329988 17.7475 3.48999 21.2375 3.75499 21.5475C4.01749 21.8525 4.73249 22.1175 5.17249 21.725C5.61499 21.335 6.75249 20.3425 6.94249 20.1675C7.13749 20.0025 6.81749 18.015 7.83749 17.225ZM22.1075 18.5175C21.8075 18.17 21.435 18.16 21.115 18.445L17.53 21.575C17.3921 21.7009 17.3082 21.8752 17.2956 22.0615C17.283 22.2477 17.3428 22.4317 17.4625 22.575L38.1975 46.1725C38.6825 46.73 39.5225 46.7875 40.075 46.305L42.5 44.2725C42.7669 44.0374 42.9303 43.7066 42.9546 43.3517C42.979 42.9969 42.8623 42.6468 42.63 42.3775L22.1075 18.5175ZM49.755 8.475C49.57 7.24 48.93 7.4975 48.5975 8.02C48.265 8.5475 46.795 10.775 46.19 11.785C45.59 12.785 44.11 14.7625 41.355 12.81C38.485 10.7825 39.4825 9.3675 39.9825 8.415C40.485 7.4575 42.0275 4.7725 42.25 4.44C42.4725 4.1025 42.2125 3.1225 41.3225 3.5325C40.43 3.9425 35.015 6.095 34.265 9.1825C33.4975 12.3225 34.9075 15.13 32.14 17.9175L28.7825 21.4175L32.155 25.3325L36.29 21.4075C37.275 20.4175 39.38 19.455 41.285 19.89C45.3675 20.8125 47.595 19.28 48.9375 16.745C50.1425 14.48 49.9425 9.71 49.755 8.475ZM6.84749 42.6325C6.59863 42.8851 6.45912 43.2254 6.45912 43.58C6.45912 43.9346 6.59863 44.2749 6.84749 44.5275L9.22499 46.8525C9.74499 47.375 10.57 47.155 11.09 46.6325L23.3575 34.5725L19.6 30.2875L6.84749 42.6325Z" fill="#EAD7B7"/>
</svg>
