<svg width="16" height="16" viewBox="0 0 16 16" fill="none" xmlns="http://www.w3.org/2000/svg">
<g clip-path="url(#clip0_115_654)">
<path d="M8 15.1667C7.90364 15.1667 7.80599 15.1387 7.72265 15.0827C2.35547 11.5046 0.166664 8.68038 0.166664 5.33337C0.166664 2.85225 2.18489 0.833374 4.66666 0.833374C6.14974 0.833374 7.39192 1.91866 8 2.5658C8.60807 1.91866 9.85026 0.833374 11.3333 0.833374C13.8151 0.833374 15.8333 2.85225 15.8333 5.33337C15.8333 8.68038 13.6445 11.5046 8.27734 15.0827C8.19401 15.1387 8.09635 15.1667 8 15.1667ZM4.66666 1.83337C2.73698 1.83337 1.16666 3.40369 1.16666 5.33337C1.16666 7.47009 2.0026 10.0072 8 14.0645C13.9974 10.0072 14.8333 7.47009 14.8333 5.33337C14.8333 3.40369 13.263 1.83337 11.3333 1.83337C10.0273 1.83337 8.77344 3.13155 8.40104 3.6322C8.30729 3.7585 8.15755 3.83272 8 3.83337C7.84245 3.83337 7.69401 3.7585 7.59896 3.63285C7.58594 3.61462 6.23177 1.83337 4.66666 1.83337Z" fill="#EAD7B7"/>
</g>
<defs>
<clipPath id="clip0_115_654">
<rect width="16" height="16" fill="white"/>
</clipPath>
</defs>
</svg>
