<svg width="50" height="50" viewBox="0 0 50 50" fill="none" xmlns="http://www.w3.org/2000/svg">
<path d="M20.677 27.6604L22.3 22.2854L18.0291 19.15H23.3666L25 13.7188L26.6354 19.15H31.9708L27.6875 22.2833L29.3125 27.6604L25 24.3229L20.677 27.6604ZM14.5833 44.7125V30.9833C13.2638 29.6847 12.2395 28.1639 11.5104 26.4208C10.7812 24.6819 10.4166 22.8194 10.4166 20.8333C10.4166 16.7681 11.8305 13.3215 14.6583 10.4938C17.4861 7.66597 20.9333 6.25139 25 6.25C29.0666 6.24861 32.5139 7.6625 35.3416 10.4917C38.1694 13.3208 39.5833 16.7681 39.5833 20.8333C39.5833 22.8181 39.2187 24.6813 38.4895 26.4229C37.7604 28.1646 36.7361 29.6833 35.4166 30.9792V44.7083L25 41.5833L14.5833 44.7125ZM33.8541 29.6875C36.2847 27.2569 37.5 24.3056 37.5 20.8333C37.5 17.3611 36.2847 14.4097 33.8541 11.9792C31.4236 9.54861 28.4722 8.33333 25 8.33333C21.5277 8.33333 18.5763 9.54861 16.1458 11.9792C13.7152 14.4097 12.5 17.3611 12.5 20.8333C12.5 24.3056 13.7152 27.2569 16.1458 29.6875C18.5763 32.1181 21.5277 33.3333 25 33.3333C28.4722 33.3333 31.4236 32.1181 33.8541 29.6875ZM16.6666 41.7583L25 39.4229L33.3333 41.7583V32.7375C32.1722 33.5917 30.8812 34.2514 29.4604 34.7167C28.0423 35.1833 26.5555 35.4167 25 35.4167C23.4444 35.4167 21.9576 35.184 20.5395 34.7188C19.1215 34.2535 17.8305 33.5931 16.6666 32.7375V41.7583Z" fill="#EAD7B7"/>
</svg>
