<svg width="16" height="16" viewBox="0 0 16 16" fill="none" xmlns="http://www.w3.org/2000/svg">
<g clip-path="url(#clip0_14_2)">
<path d="M9.33333 0.166626C5.7487 0.166626 2.83333 3.08264 2.83333 6.66663C2.83333 8.2782 3.4445 9.73604 4.41919 10.8731L0.3125 14.9798C0.11849 15.1751 0.11849 15.4915 0.3125 15.6868C0.410156 15.7845 0.539062 15.8333 0.666667 15.8333C0.794271 15.8333 0.923177 15.7845 1.02083 15.6868L5.12687 11.5808C6.26383 12.5555 7.7216 13.1666 9.33333 13.1666C12.918 13.1666 15.8333 10.2506 15.8333 6.66663C15.8333 3.08264 12.918 0.166626 9.33333 0.166626ZM9.33333 12.1666C6.30078 12.1666 3.83333 9.69918 3.83333 6.66663C3.83333 3.63407 6.30078 1.16663 9.33333 1.16663C12.3659 1.16663 14.8333 3.63407 14.8333 6.66663C14.8333 9.69918 12.3659 12.1666 9.33333 12.1666Z" fill="#EAD7B7"/>
</g>
<defs>
<clipPath id="clip0_14_2">
<rect width="16" height="16" fill="white"/>
</clipPath>
</defs>
</svg>
