<svg width="50" height="35" viewBox="0 0 50 35" fill="none" xmlns="http://www.w3.org/2000/svg">
<path d="M46.875 28.4061H3.125C2.24609 28.4061 1.50553 28.1902 0.90332 27.7582C0.301107 27.3263 0 26.8148 0 26.2237V24.0412C0 23.4274 0.301107 22.9102 0.90332 22.4896C1.50553 22.069 2.24609 21.8587 3.125 21.8587H20.0195C21.2565 20.7448 21.875 19.2898 21.875 17.4938C21.875 15.8342 21.4193 14.3167 20.5078 12.9413C19.5964 11.5659 18.3757 10.5031 16.8457 9.75289C16.0319 8.75259 15.625 7.69546 15.625 6.58149C15.625 4.76277 16.5365 3.21118 18.3594 1.92671C20.1823 0.642236 22.3958 0 25 0C27.6042 0 29.8177 0.642236 31.6406 1.92671C33.4635 3.21118 34.375 4.76277 34.375 6.58149C34.375 7.69546 33.9681 8.75259 33.1543 9.75289C31.6243 10.5031 30.4036 11.5659 29.4922 12.9413C28.5807 14.3167 28.125 15.8342 28.125 17.4938C28.125 19.2898 28.7435 20.7448 29.9805 21.8587H46.875C47.7539 21.8587 48.4945 22.069 49.0967 22.4896C49.6989 22.9102 50 23.4274 50 24.0412V26.2237C50 26.8148 49.6989 27.3263 49.0967 27.7582C48.4945 28.1902 47.7539 28.4061 46.875 28.4061ZM46.875 32.7711C46.875 33.3621 46.5739 33.8737 45.9717 34.3056C45.3695 34.7376 44.6289 34.9535 43.75 34.9535H6.25C5.37109 34.9535 4.63053 34.7376 4.02832 34.3056C3.42611 33.8737 3.125 33.3621 3.125 32.7711V30.5886H46.875V32.7711Z" fill="#EAD7B7"/>
</svg>
