<svg width="20" height="20" viewBox="0 0 20 20" fill="none" xmlns="http://www.w3.org/2000/svg">
<path fill-rule="evenodd" clip-rule="evenodd" d="M12.525 8.07002H15.8292C16.0975 8.07002 16.3625 8.13669 16.6 8.26335C16.8375 8.39002 17.0433 8.57502 17.1975 8.80085C17.3514 9.02847 17.4498 9.28897 17.4848 9.56148C17.5198 9.83398 17.4905 10.1109 17.3992 10.37L15.4325 16.3709C15.1925 17.0492 15.0325 17.5 13.8625 17.5C12.1358 17.5 10.2992 16.9359 8.73167 16.4534C8.33833 16.3325 7.96167 16.2167 7.60833 16.1167H7.5125V7.89835C8.89404 6.53516 10.0823 4.98912 11.0442 3.30335C11.2059 2.9921 11.4716 2.74737 11.795 2.61169C12.1155 2.47805 12.4733 2.46386 12.8033 2.57169C13.1333 2.68002 13.4167 2.90252 13.6033 3.20252C13.7908 3.50252 13.87 3.85919 13.8275 4.21169L12.525 8.07002ZM3.48083 8.33335H5.83333V15C5.83333 15.442 5.65774 15.866 5.34518 16.1785C5.03262 16.4911 4.60869 16.6667 4.16667 16.6667C3.72464 16.6667 3.30072 16.4911 2.98816 16.1785C2.67559 15.866 2.5 15.442 2.5 15V9.31419C2.5 8.77252 2.94 8.33335 3.48083 8.33335Z" fill="#EAD7B7"/>
</svg>
