<svg width="16" height="16" viewBox="0 0 16 16" fill="none" xmlns="http://www.w3.org/2000/svg">
<g clip-path="url(#clip0_13_16)">
<path d="M10.6108 8.3175C11.75 7.5002 12.5 6.17249 12.5 4.66663C12.5 2.18551 10.4818 0.166626 8 0.166626C5.51823 0.166626 3.5 2.18551 3.5 4.66663C3.5 6.17249 4.24999 7.5002 5.38924 8.3175C2.78719 8.90295 0.833332 11.2233 0.833332 14V15.3333C0.833332 15.6093 1.05729 15.8333 1.33333 15.8333H14.6667C14.9427 15.8333 15.1667 15.6093 15.1667 15.3333V14C15.1667 11.2233 13.2128 8.90295 10.6108 8.3175ZM4.5 4.66663C4.5 2.73694 6.07031 1.16663 8 1.16663C9.92969 1.16663 11.5 2.73694 11.5 4.66663C11.5 6.59631 9.92969 8.16663 8 8.16663C6.07031 8.16663 4.5 6.59631 4.5 4.66663ZM14.1667 14.8333H1.83333V14C1.83333 11.3346 4.0013 9.16663 6.66667 9.16663H9.33333C11.9987 9.16663 14.1667 11.3346 14.1667 14V14.8333Z" fill="#EAD7B7"/>
</g>
<defs>
<clipPath id="clip0_13_16">
<rect width="16" height="16" fill="white"/>
</clipPath>
</defs>
</svg>
