<svg width="15" height="15" viewBox="0 0 15 15" fill="none" xmlns="http://www.w3.org/2000/svg">
<path d="M6.84375 7.93749L5.9375 7.04687C5.82292 6.93229 5.67979 6.87499 5.50813 6.87499C5.33646 6.87499 5.18792 6.93749 5.0625 7.06249C4.94792 7.17708 4.89063 7.32291 4.89063 7.49999C4.89063 7.67708 4.94792 7.82291 5.0625 7.93749L6.40625 9.28124C6.53125 9.40624 6.67708 9.46874 6.84375 9.46874C7.01042 9.46874 7.15625 9.40624 7.28125 9.28124L9.9375 6.62499C10.0625 6.49999 10.1223 6.35416 10.1169 6.18749C10.1115 6.02083 10.0517 5.87499 9.9375 5.74999C9.8125 5.62499 9.66417 5.55999 9.4925 5.55499C9.32083 5.54999 9.17229 5.60979 9.04688 5.73437L6.84375 7.93749ZM5.09375 13.5937L4.1875 12.0625L2.46875 11.6875C2.3125 11.6562 2.1875 11.5756 2.09375 11.4456C2 11.3156 1.96354 11.1723 1.98438 11.0156L2.15625 9.24999L0.984375 7.90624C0.880208 7.79166 0.828125 7.65624 0.828125 7.49999C0.828125 7.34374 0.880208 7.20833 0.984375 7.09374L2.15625 5.74999L1.98438 3.98437C1.96354 3.82812 2 3.68479 2.09375 3.55437C2.1875 3.42395 2.3125 3.34333 2.46875 3.31249L4.1875 2.93749L5.09375 1.40624C5.17708 1.27083 5.29167 1.17958 5.4375 1.13249C5.58333 1.08541 5.72917 1.09333 5.875 1.15624L7.5 1.84374L9.125 1.15624C9.27083 1.09374 9.41667 1.08583 9.5625 1.13249C9.70833 1.17916 9.82292 1.27041 9.90625 1.40624L10.8125 2.93749L12.5312 3.31249C12.6875 3.34374 12.8125 3.42458 12.9062 3.55499C13 3.68541 13.0365 3.82854 13.0156 3.98437L12.8438 5.74999L14.0156 7.09374C14.1198 7.20833 14.1719 7.34374 14.1719 7.49999C14.1719 7.65624 14.1198 7.79166 14.0156 7.90624L12.8438 9.24999L13.0156 11.0156C13.0365 11.1719 13 11.3152 12.9062 11.4456C12.8125 11.576 12.6875 11.6567 12.5312 11.6875L10.8125 12.0625L9.90625 13.5937C9.82292 13.7292 9.70833 13.8204 9.5625 13.8675C9.41667 13.9146 9.27083 13.9067 9.125 13.8437L7.5 13.1562L5.875 13.8437C5.72917 13.9062 5.58333 13.9142 5.4375 13.8675C5.29167 13.8208 5.17708 13.7296 5.09375 13.5937Z" fill="#EAD7B7"/>
</svg>
