<svg width="24" height="24" viewBox="0 0 24 24" fill="none" xmlns="http://www.w3.org/2000/svg">
<path d="M12 22.75C11.8555 22.75 11.709 22.708 11.584 22.624C3.5332 17.2568 0.25 13.0205 0.25 8C0.25 4.27832 3.27734 1.25 7 1.25C9.22461 1.25 11.0879 2.87793 12 3.84863C12.9121 2.87793 14.7754 1.25 17 1.25C20.7227 1.25 23.75 4.27832 23.75 8C23.75 13.0205 20.4668 17.2568 12.416 22.624C12.291 22.708 12.1445 22.75 12 22.75ZM7 2.75C4.10547 2.75 1.75 5.10547 1.75 8C1.75 11.2051 3.00391 15.0107 12 21.0967C20.9961 15.0107 22.25 11.2051 22.25 8C22.25 5.10547 19.8945 2.75 17 2.75C15.041 2.75 13.1602 4.69727 12.6016 5.44824C12.4609 5.6377 12.2363 5.74902 12 5.75C11.7637 5.75 11.541 5.6377 11.3984 5.44922C11.3789 5.42188 9.34766 2.75 7 2.75Z" fill="white"/>
</svg>
